<svg xmlns="http://www.w3.org/2000/svg"
 xmlns:xlink="http://www.w3.org/1999/xlink"
 width="26px" height="17px"  viewBox="0 0 26 17">
<path fill-rule="evenodd"  fill="#888888"
 d="M8.751099,15.909668 C7.342407,15.826904 6.0617676,15.384766 4.9281006,14.549072 C3.4659424,13.472168 2.5447998,12.035645 2.1577148,10.260742 C2.0170898,9.618408 1.9671631,8.9765625 2.0203857,8.327393 C2.121704,6.7939453 2.6573486,5.4196777 3.6400146,4.225586 C4.657837,2.9750977 5.954956,2.1606445 7.505371,1.7675781 C7.898926,1.6635742 8.293457,1.6008301 8.694458,1.5808105 C8.921875,1.5734863 9.150269,1.5595703 9.378052,1.5595703 C10.593262,1.5734863 11.731079,1.8776855 12.775635,2.4924316 C13.476929,2.8925781 13.8741455,3.3000488 14.04541,3.4243164 C13.329224,4.1289062 12.640625,4.819336 11.9375,5.5095215 C11.416016,5.060791 10.839355,4.6464844 9.839233,4.494873 C9.631958,4.4645996 9.427002,4.449707 9.226318,4.449707 C7.219116,4.449707 5.537842,5.901123 5.09021,7.8027344 C4.9832764,8.230225 4.953003,8.6657715 4.9902344,9.10083 C5.1434326,10.868652 6.326538,12.3186035 7.925171,12.83667 C8.332153,12.965088 8.754272,13.025635 9.178711,13.025635 C9.278198,13.025635 9.377075,13.023193 9.477051,13.016846 C10.230103,12.968018 10.935547,12.767822 11.574707,12.346191 C12.650391,11.614502 12.997681,10.468262 13.000122,10.18457 C13.000122,10.18457 9.153931,10.18457 9.153931,10.18457 C9.154419,10.090332 9.168457,8.292969 9.174927,7.4155273 C9.174927,7.4155273 9.182373,7.298584 9.182373,7.298584 C9.182373,7.298584 15.935913,7.298584 15.935913,7.298584 C16.29956,9.405029 15.97229,11.62085 14.660767,13.354492 C13.75415,14.549072 12.546875,15.302002 11.107422,15.675049 C10.46875,15.839844 9.820557,15.920898 9.168457,15.920898 C9.029297,15.920898 8.890137,15.916992 8.751099,15.909668 ZM22.08191,11.855957 C22.08191,11.855957 20.25879,11.855957 20.25879,11.855957 C20.25879,11.855957 20.189697,11.855957 20.189697,11.855957 C20.189697,11.855957 20.190063,11.786621 20.190063,11.786621 C20.190063,11.786621 20.208862,9.356201 20.208862,9.356201 C20.208862,9.356201 17.77832,9.356201 17.77832,9.356201 C17.77832,9.356201 17.702026,9.356201 17.702026,9.356201 C17.702026,9.356201 17.702637,9.280273 17.702637,9.280273 C17.702637,9.280273 17.716553,7.4641113 17.716553,7.4641113 C17.716553,7.4641113 17.717041,7.3947754 17.717041,7.3947754 C17.717041,7.3947754 17.79309,7.3947754 17.79309,7.3947754 C17.79309,7.3947754 20.223755,7.3947754 20.223755,7.3947754 C20.223755,7.3947754 20.242432,4.9575195 20.242432,4.9575195 C20.242432,4.9575195 20.24292,4.8881836 20.24292,4.8881836 C20.24292,4.8881836 20.311523,4.8881836 20.311523,4.8881836 C20.311523,4.8881836 22.135132,4.8881836 22.135132,4.8881836 C22.135132,4.8881836 22.203857,4.8881836 22.203857,4.8881836 C22.203857,4.8881836 22.20337,4.9575195 22.20337,4.9575195 C22.20337,4.9575195 22.18457,7.3947754 22.18457,7.3947754 C22.18457,7.3947754 24.6156,7.3947754 24.6156,7.3947754 C24.6156,7.3947754 24.691406,7.3947754 24.691406,7.3947754 C24.691406,7.3947754 24.690796,7.4641113 24.690796,7.4641113 C24.690796,7.4641113 24.67688,9.280273 24.67688,9.280273 C24.67688,9.280273 24.676392,9.356201 24.676392,9.356201 C24.676392,9.356201 24.60083,9.356201 24.60083,9.356201 C24.60083,9.356201 22.170166,9.356201 22.170166,9.356201 C22.170166,9.356201 22.15149,11.786621 22.15149,11.786621 C22.15149,11.786621 22.151001,11.855957 22.151001,11.855957 C22.151001,11.855957 22.08191,11.855957 22.08191,11.855957 Z"/>
</svg>